<?xml version="1.0" encoding="UTF-8"?><svg xmlns="http://www.w3.org/2000/svg" xmlns:xlink="http://www.w3.org/1999/xlink" height="132.0" preserveAspectRatio="xMidYMid meet" version="1.0" viewBox="0.0 0.0 382.0 132.0" width="382.0" zoomAndPan="magnify"><linearGradient gradientUnits="userSpaceOnUse" id="a" x1="81.888" x2="300.113" xlink:actuate="onLoad" xlink:show="other" xlink:type="simple" xmlns:xlink="http://www.w3.org/1999/xlink" y1="-43.112" y2="175.113"><stop offset="0" stop-color="#feb41d"/><stop offset=".342" stop-color="#fc443c"/><stop offset=".72" stop-color="#e5038b"/><stop offset="1" stop-color="#761ed2"/></linearGradient><path d="M316,132H66c-36.3,0-66-29.7-66-66v0C0,29.7,29.7,0,66,0h250c36.3,0,66,29.7,66,66v0 C382,102.3,352.3,132,316,132z" fill="url(#a)"/><g><g><g><g id="change1_2"><path clip-rule="evenodd" d="M74.96,31.25c-8.49,0-15.37,7.53-15.37,16.81 c0,9.29,6.88,16.82,15.37,16.82c8.5,0,15.38-7.53,15.38-16.82C90.34,38.78,83.45,31.25,74.96,31.25z M87.98,72.36 c-3.84-1.88-8.17-2.93-12.76-2.93c-15.74,0-28.5,12.39-28.5,27.67H87.1c-2.13-3.36-3.38-7.39-3.38-11.74 C83.72,80.45,85.31,75.94,87.98,72.36z" fill="#FFF" fill-rule="evenodd"/></g></g><g id="change1_1"><ellipse clip-rule="evenodd" cx="103.72" cy="85.24" fill="#FFF" fill-rule="evenodd" rx="17" ry="17.93"/></g></g><g><g id="change1_3"><path d="M163.18,51.29c4.09,0,6.03-2.03,6.03-5.87c-0.1-4.06-2.04-5.98-6.03-5.98h-20.24 c-4.09,0-6.24,2.24-6.24,6.62v45.39c0,3.52,2.04,5.45,5.93,5.45c3.99,0,6.03-1.82,6.03-5.45V74.36h10.22 c3.99,0,5.83-2.03,5.83-5.87c0-3.95-1.84-5.98-5.83-5.98h-10.22V51.29H163.18z M189.56,53.43c-12.68,0-19.22,10.25-19.22,21.68 c0,11.53,6.54,22.53,19.22,22.53c12.47,0,19.22-10.36,19.22-22C208.78,64.21,202.14,53.43,189.56,53.43z M189.56,87.28 c-5.21,0-7.57-7.37-7.57-12.49c0-5.34,2.25-10.79,7.57-10.79s7.57,6.83,7.57,12.07C197.13,81.3,194.77,87.28,189.56,87.28z M218.29,36.98c-3.78,0-5.73,2.03-5.73,5.87v48.27c0,3.95,1.84,5.77,5.73,5.77c3.89,0,5.73-1.82,5.73-5.77V42.85 C224.02,39.12,222.07,36.98,218.29,36.98z M234.55,36.98c-3.78,0-5.73,2.03-5.73,5.87v48.27c0,3.95,1.84,5.77,5.73,5.77 c3.89,0,5.73-1.82,5.73-5.77V42.85C240.27,39.12,238.33,36.98,234.55,36.98z M265.63,53.43c-12.68,0-19.22,10.25-19.22,21.68 c0,11.53,6.54,22.53,19.22,22.53c12.47,0,19.22-10.36,19.22-22C284.85,64.21,278.2,53.43,265.63,53.43z M265.63,87.28 c-5.21,0-7.57-7.37-7.57-12.49c0-5.34,2.25-10.79,7.57-10.79c5.21,0,7.57,6.83,7.57,12.07C273.19,81.3,270.84,87.28,265.63,87.28 z M344.37,59.59c-0.02-3.92-1.24-5.84-5.54-5.84c-2.97,0-4.91,1.39-5.93,4.38l-4.91,20.5c-2.76-8.54-2.35-11.53-5.21-19.97 c-0.82-3.1-4.19-4.7-6.54-4.7c-2.56,0-5.01,1.6-6.03,4.49l-5.62,20.82l-5.21-21.15c-1.23-2.88-2.97-4.27-5.93-4.27 c-3.89,0-5.73,1.82-5.73,5.87c0,0.85,1.23,4.91,10.43,32.25c1.12,3.2,3.37,4.91,6.44,4.91s5.42-1.71,6.34-4.81l5.42-18.8 c2.86,8.54,2.97,10.47,5.73,18.69c1.12,3.2,3.07,4.91,5.93,4.91c2.56,0,4.91-1.5,5.93-4.7c7.92-23.08,9.61-28.8,9.99-30.31 l-0.07,0.4C344.27,61.3,344.37,60.44,344.37,59.59z" fill="#FFF"/></g></g></g><linearGradient gradientUnits="userSpaceOnUse" id="b" x1="95.599" x2="111.69" xlink:actuate="onLoad" xlink:show="other" xlink:type="simple" xmlns:xlink="http://www.w3.org/1999/xlink" y1="89.929" y2="80.638"><stop offset="0" stop-color="#feb41d"/><stop offset=".342" stop-color="#fc443c"/><stop offset=".72" stop-color="#e5038b"/><stop offset="1" stop-color="#761ed2"/></linearGradient><path clip-rule="evenodd" d="M113.79,84.63v1.58c0,0.72-0.59,1.31-1.31,1.31h-6.66v6.58 c0,0.78-0.64,1.41-1.42,1.41h-1.37c-0.78,0-1.41-0.63-1.41-1.41v-6.58h-6.66c-0.72,0-1.31-0.59-1.31-1.31v-1.58 c0-0.72,0.59-1.31,1.31-1.31h6.66v-6.93c0-0.79,0.63-1.42,1.41-1.42h1.37c0.78,0,1.42,0.63,1.42,1.42v6.93h6.66 C113.2,83.32,113.79,83.91,113.79,84.63z" fill="url(#b)" fill-rule="evenodd"/></svg>