<?xml version="1.0" encoding="UTF-8"?><svg xmlns="http://www.w3.org/2000/svg" xmlns:xlink="http://www.w3.org/1999/xlink" height="250.3" preserveAspectRatio="xMidYMid meet" version="1.1" viewBox="78.2 89.8 252.9 250.3" width="252.9" zoomAndPan="magnify">
 <g id="surface1">
  <g id="change1_1"><path d="m152.2 190.56c10.11 1.71 11.93-5.16 10.43-10.36 0 0-2.98-18.47-4.37-24.54-3.06-13.34-10.53-14.61-20.28-15.54-16.16-1.53-31.95 5.56-39.722 16.72-20.031 28.74 38.032 167.7 52.892 176.48 11.57 6.82 31.91-4.88 42.4-12.41 7.4-5.32 11.12-13.66 8.64-22.43l-8.54-24.8c-2.83-10.01-10.87-10.73-17.19-6.2-5.85 4.18-11.71 16.28-17.57 12.12-10.42-7.37-35.69-67.89-26.78-85.68 3.39-6.8 12.46-4.64 20.09-3.36" fill="#f9ad30"/></g>
  <g id="change2_1"><path d="m291.57 89.824h-74.01c-21.83 0-39.52 17.696-39.52 39.526v27.54c0 21.83 17.69 39.52 39.52 39.52h2.29c-0.38 7.59-2.36 19.3-10.19 28.03 0 0 33.85-2.33 49.24-28.03h32.67c21.83 0 39.53-17.69 39.53-39.52v-27.54c0-21.83-17.7-39.526-39.53-39.526" fill="#339c50"/></g>
 </g>
</svg>